<svg xmlns="http://www.w3.org/2000/svg" width="235.443" height="105.18" viewBox="0 0 235.443 105.18">
  <g id="Grupo_100" data-name="Grupo 100" transform="translate(-99 -112)">
    <path id="Trazado_15" data-name="Trazado 15" d="M-42.485.58c3.538,0,5.626-2.552,6.438-5.336.116.406.522,2.958.754,4.756h8.468a47.657,47.657,0,0,1-.58-8.352v-15.66c0-5.916-3.364-10.092-10.15-10.092-7.83,0-11.658,3.712-12.006,11.774l8.816.348.232-2.436c.058-1.508.464-2.668,2.088-2.668,1.566,0,1.972,1.218,1.972,2.958v3.364c-6.322,2.2-13.8,4.814-13.8,13.166C-50.257-3.654-47.589.58-42.485.58Zm3.364-6.38c-1.624,0-2.61-1.392-2.61-3.654,0-3.364,2.146-5.394,5.278-7.192v9.164A3.459,3.459,0,0,1-39.121-5.8ZM-11.513.348A38.844,38.844,0,0,0-5.829-.116V-7.54a15.363,15.363,0,0,1-2.552.232c-1.74,0-2.958-.812-2.958-2.726V-27.318h4.756v-6.206h-4.756V-43.732h-9.57v10.208h-3.248v6.206h3.248V-9.106C-20.909-3.074-19.111.348-11.513.348ZM9.541.58c7.076,0,11.31-3.422,11.31-10.208v-4.06H11.745v4.466c0,2.436-.7,3.306-2.146,3.306-1.392,0-2.146-.87-2.146-3.886v-13.92c0-2.958.7-3.944,2.088-3.944s2.2.7,2.2,3.364v3.828h9.106v-3.538c0-6.786-4.176-10.092-11.31-10.092-7.308,0-11.6,4.06-11.6,11.194v12.3C-2.059-3.6,2.233.58,9.541.58ZM25.839,0h9.4V-26.216a6.355,6.355,0,0,1,3.074-1.218c1.45,0,1.914.87,1.914,2.494V0h9.4V-26.274c0-4.466-2.146-7.83-6.148-7.83a11.085,11.085,0,0,0-8.236,3.538V-46.98h-9.4Z" transform="translate(248 185.686)" fill="rgba(255,255,255,0.8)"/>
    <path id="Trazado_16" data-name="Trazado 16" d="M-14.993-39.208h9.512v-6.554h-9.512ZM-14.935,0h9.454V-33.524h-9.454ZM10.759.348a38.844,38.844,0,0,0,5.684-.464V-7.54a15.363,15.363,0,0,1-2.552.232c-1.74,0-2.958-.812-2.958-2.726V-27.318h4.756v-6.206H10.933V-43.732H1.363v10.208H-1.885v6.206H1.363V-9.106C1.363-3.074,3.161.348,10.759.348Z" transform="translate(318 185.686)" fill="#fff"/>
    <g id="Grupo_1" data-name="Grupo 1" transform="translate(99 112)">
      <path id="Trazado_3" data-name="Trazado 3" d="M1034.748,1297.314l-20.409,73.75-23.387.221,21.263-73.971Z" transform="translate(-928 -1297.314)" fill="#fff" opacity="0.6"/>
      <path id="Trazado_4" data-name="Trazado 4" d="M1014.336,1371.037l-20.841-73.146H970.313l20.637,73.414Z" transform="translate(-928 -1297.314)" fill="#fff" opacity="0.6"/>
      <path id="Trazado_5" data-name="Trazado 5" d="M928,1297.314l21.045,73.424h23.4l-21.123-73.424Z" transform="translate(-928 -1297.314)" fill="#fff" opacity="0.6"/>
      <path id="Trazado_6" data-name="Trazado 6" d="M949.051,1370.761l21.253-72.877,23.232.016-21.083,72.851Z" transform="translate(-928 -1297.314)" fill="#fff" opacity="0.6"/>
    </g>
    <path id="Trazado_17" data-name="Trazado 17" d="M-103.763.264c4.026,0,5.39-2.2,5.39-5.874v-6.622c0-3.674-1.364-5.83-5.39-5.83-4,0-5.346,2.156-5.346,5.83V-5.61C-109.109-1.936-107.767.264-103.763.264Zm0-2.794c-1.232,0-1.32-1.078-1.32-2.09V-13.2c0-1.056.154-2.09,1.32-2.09,1.232,0,1.364,1.034,1.364,2.09v8.58C-102.4-3.608-102.531-2.53-103.763-2.53Zm7.59,6.71h3.586V-.968A4.278,4.278,0,0,0-89.881.22c1.8,0,2.772-1.562,2.772-3.938V-9.2c0-2.068-.792-3.74-2.728-3.74a4.227,4.227,0,0,0-2.75,1.144v-.924h-3.586Zm4.532-6.27a1.758,1.758,0,0,1-.946-.33v-7.92a1.516,1.516,0,0,1,1.012-.44c.616,0,.88.594.88,1.32v5.94C-90.695-2.728-90.959-2.09-91.641-2.09ZM-80.9.22c2.64,0,4.224-1.32,4.224-3.894V-4.906h-3.3v1.342c0,.924-.4,1.232-.924,1.232s-.88-.374-.88-1.364V-6.138h5.1V-8.69c0-2.772-1.408-4.246-4.224-4.246-2.75,0-4.422,1.518-4.422,4.246v4.664C-85.327-1.32-83.677.22-80.9.22Zm-.88-8.03V-8.888c0-1.166.33-1.5.858-1.5.55,0,.946.286.946,1.3V-7.81ZM-74.723,0h3.586V-9.944a2.286,2.286,0,0,1,1.122-.462c.55,0,.726.33.726.946V0h3.564V-9.966c0-1.694-.792-2.97-2.354-2.97a4.375,4.375,0,0,0-3.058,1.5v-1.276h-3.586Zm16.786,0h3.52V-10.032a2.326,2.326,0,0,1,1.188-.462c.506,0,.77.286.77.99V0h3.476V-10.032a2.326,2.326,0,0,1,1.188-.462c.506,0,.748.286.748.99V0h3.52V-9.878c0-1.936-.968-3.08-2.464-3.08a4.15,4.15,0,0,0-3.234,1.518A2.235,2.235,0,0,0-51.4-12.958,4.176,4.176,0,0,0-54.417-11.7v-1.012h-3.52Zm20.746.22c2.706,0,4.466-1.386,4.466-4.158v-4.84c0-2.772-1.76-4.158-4.466-4.158-2.728,0-4.444,1.386-4.444,4.158v4.84C-41.635-1.166-39.919.22-37.191.22Zm.022-2.376c-.7,0-.924-.572-.924-1.54V-9.02c0-.946.22-1.54.924-1.54s.9.572.9,1.54V-3.7C-36.267-2.728-36.465-2.156-37.169-2.156ZM-29.095,0h3.718l2.618-12.716h-3.432L-27.159-4.6l-1.056-8.118h-3.432Zm7.612-14.872h3.608v-2.486h-3.608ZM-21.461,0h3.586V-12.716h-3.586Zm9.966.22c2.64,0,4.224-1.32,4.224-3.894V-4.906h-3.3v1.342c0,.924-.4,1.232-.924,1.232s-.88-.374-.88-1.364V-6.138h5.1V-8.69c0-2.772-1.408-4.246-4.224-4.246-2.75,0-4.422,1.518-4.422,4.246v4.664C-15.917-1.32-14.267.22-11.495.22Zm-.88-8.03V-8.888c0-1.166.33-1.5.858-1.5.55,0,.946.286.946,1.3V-7.81ZM-1.4.22C.627.22,2.5-1.012,2.5-3.234,2.5-4.862,1.309-5.918.209-6.842l-.9-.792c-1.122-.9-1.782-1.518-1.782-2.068a.694.694,0,0,1,.77-.726c.792,0,1.43,1.012,1.694,1.826L2.3-9.658a4.034,4.034,0,0,0-4.092-3.278,3.68,3.68,0,0,0-3.916,3.5c0,1.584.836,2.508,2.178,3.652l.924.77c1.32,1.1,1.76,1.474,1.76,2.156,0,.418-.286.66-.836.66-.77,0-1.408-.7-1.87-1.848L-5.995-2.97A4.5,4.5,0,0,0-1.4.22Zm15.2,0c2.64,0,4.224-1.32,4.224-3.894V-4.906h-3.3v1.342c0,.924-.4,1.232-.924,1.232s-.88-.374-.88-1.364V-6.138h5.1V-8.69c0-2.772-1.408-4.246-4.224-4.246-2.75,0-4.422,1.518-4.422,4.246v4.664C9.383-1.32,11.033.22,13.805.22Zm-.88-8.03V-8.888c0-1.166.33-1.5.858-1.5.55,0,.946.286.946,1.3V-7.81ZM21.637,0h3.718l2.618-12.716H24.541L23.573-4.6l-1.056-8.118H19.085Zm11.77.22c2.64,0,4.224-1.32,4.224-3.894V-4.906h-3.3v1.342c0,.924-.4,1.232-.924,1.232s-.88-.374-.88-1.364V-6.138h5.1V-8.69c0-2.772-1.408-4.246-4.224-4.246-2.75,0-4.422,1.518-4.422,4.246v4.664C28.985-1.32,30.635.22,33.407.22Zm-.88-8.03V-8.888c0-1.166.33-1.5.858-1.5.55,0,.946.286.946,1.3V-7.81ZM39.633,0h3.586V-8.272A2.7,2.7,0,0,1,45.331-9.5,3.135,3.135,0,0,1,46.5-9.24V-12.8a1.981,1.981,0,0,0-.55-.066c-1.188,0-1.914.814-2.728,2.266v-2.112H39.633Zm8.734,3.7h.814c2.244,0,3.828-.748,4.422-3.388l2.926-13.024H53.141l-1.21,7.348-1.606-7.348H46.959L49.951-2A9.166,9.166,0,0,1,50.413.132c0,.858-.7,1.078-2.046,1.078ZM59.081,0h3.036l1.232-7.15L64.449,0h3.08l1.892-12.716H66.649L65.571-5.324l-.858-7.392h-2.6L61.127-5.5,60.2-12.716H57.211ZM71.027,0h3.564V-9.944a2.411,2.411,0,0,1,1.166-.462c.55,0,.726.33.726.946V0h3.564V-9.966c0-1.694-.814-2.97-2.332-2.97a4.2,4.2,0,0,0-3.124,1.342V-17.82H71.027ZM86.361.22c2.64,0,4.224-1.32,4.224-3.894V-4.906h-3.3v1.342c0,.924-.4,1.232-.924,1.232s-.88-.374-.88-1.364V-6.138h5.1V-8.69c0-2.772-1.408-4.246-4.224-4.246-2.75,0-4.422,1.518-4.422,4.246v4.664C81.939-1.32,83.589.22,86.361.22Zm-.88-8.03V-8.888c0-1.166.33-1.5.858-1.5.55,0,.946.286.946,1.3V-7.81ZM92.587,0h3.586V-8.272A2.7,2.7,0,0,1,98.285-9.5a3.135,3.135,0,0,1,1.166.264V-12.8a1.981,1.981,0,0,0-.55-.066c-1.188,0-1.914.814-2.728,2.266v-2.112H92.587Zm12.54.22c2.64,0,4.224-1.32,4.224-3.894V-4.906h-3.3v1.342c0,.924-.4,1.232-.924,1.232s-.88-.374-.88-1.364V-6.138h5.1V-8.69c0-2.772-1.408-4.246-4.224-4.246-2.75,0-4.422,1.518-4.422,4.246v4.664C100.705-1.32,102.355.22,105.127.22Zm-.88-8.03V-8.888c0-1.166.33-1.5.858-1.5.55,0,.946.286.946,1.3V-7.81Z" transform="translate(225 213)" fill="#fff" opacity="0.9"/>
  </g>
</svg>
